# xmcd
#
# Track frame offsets:
#	150
#	16178
#	29261
#	44533
#	58374
#	73544
#	84199
#	109785
#	129318
#	152779
#	169246
#	187021
#	203751
#	226691
#
# Disc length: 3414 seconds
#
# Revision: 1
# Processed by: cddbd v1.4PL0 Copyright (c) Steve Scherf et al.
# Submitted via: EasyCDDAExtractor 6.0.0.1
#
DISCID=b40d540e
DTITLE=Dolly Parton
DYEAR=1900
DGENRE=
TTITLE0=Halos and Horns
TTITLE1=Sugar Hill
TTITLE2=Not For Me
TTITLE3=Hello God
TTITLE4=If
TTITLE5=Shattered Image
TTITLE6=These Old Bones
TTITLE7=What A Heartache
TTITLE8=I'm Gone
TTITLE9=Raven Dove
TTITLE10=Dagger Through The Heart
TTITLE11=If Only
TTITLE12=John Daniel
TTITLE13=Stairway To Heaven
EXTD=
EXTT0=
EXTT1=
EXTT2=
EXTT3=
EXTT4=
EXTT5=
EXTT6=
EXTT7=
EXTT8=
EXTT9=
EXTT10=
EXTT11=
EXTT12=
EXTT13=
PLAYORDER=
